/* XPM */
static char *_a766b11d22048bda80b3829caca1d23yOK4RU7TQ6shBAba[] = {
/* columns rows colors chars-per-pixel */
"100 100 2 1 ",
"  c None",
". c white",
/* pixels */
"                                                                                                    ",
"                                                                                                    ",
"                                                                                                    ",
"                                                                                                    ",
"                                                                                                    ",
"                                                                                                    ",
"                                                                                                    ",
"                                                                                                    ",
"                                                                                                    ",
"                                                                                                    ",
"                                     .         ...............................                      ",
"                                   ....       .................................                     ",
"                                   .....     ...................................                    ",
"                                  .......    ....................................                   ",
"                                 ......... .......................................                  ",
"                               ....................................................                 ",
"                               .....................................................                ",
"                              .......................................................               ",
"                               .......................................................              ",
"                               ........................................................             ",
"                                 .......................................................            ",
"                                  .......................................................           ",
"                                   .......................................................          ",
"                                   .......................................................          ",
"                                   .......................................................          ",
"                 .                 .......................................................          ",
"               .....               .......................................................          ",
"               .....               .......................................................          ",
"              .......              .......................................................          ",
"             .........             .......................................................          ",
"           ............            .......................................................          ",
"           .............           .......................................................          ",
"          ...............          .......................................................          ",
"          ................        ........................................................          ",
"          .................      .........................................................          ",
"       ...   .............................................................................          ",
"      ....     ...........................................................................          ",
"     .....     ...........................................................................          ",
"    .......    ...........................................................................          ",
"   ........   ............................................................................          ",
"..........................................................................................          ",
"..........................................................................................          ",
"..........................................................................................          ",
".........................................................................................           ",
"........................................................................................            ",
"...............................   ....................................................              ",
"..............................     ...................................................              ",
"..............................     ..................................................               ",
"..............................     ...................................................              ",
"...............................     ..................................................              ",
"....... ..........................     ......................................................       ",
".....     .........................     ......................................................      ",
".....     .........................     .......................................................     ",
".....     .........................     ........................................................    ",
".....     ..........................   ..........................................................   ",
".....     .......      .............................................................................",
".....     ......        ............................................................................",
".....     .....          ...........................................................................",
".....     .....           ..........................................................................",
".....     .....            .........................................................................",
".....     .....              .......................................................................",
".....     .....              .......................................................................",
".....     .....               ......................................................................",
".....     .....              .......................................................................",
".....     .....              .......................................................................",
".....     .....            .....................................................................    ",
".....     .....           .....................................................................     ",
".....     .....          ......................................................................     ",
".....     .....         .......................................................................     ",
".....     .....        .........................................................................    ",
".....     .....      ...............................................................................",
".....     .....      ...............................................................................",
".....     .....     ................................................................................",
".....     ....       ...............................................................................",
".....     ...        ...............................................................................",
"     .....             .............................................................................",
"     .....              ............................................................................",
"     .....               ...........................................................................",
"     .....                ..........................................................................",
"     .....                 .........................................................................",
"     .....                       ................................................................   ",
"     .....                        ..............................................................    ",
"     .....                         ............................................................     ",
"     .....                          ...........................................................     ",
"       .                             ..........................................................     ",
"                                      .........................................................     ",
"                                       ........................................................     ",
"                                        .......................................................     ",
"                                         ......................................................     ",
"                                          .....................................................     ",
"                                           ..............      .............. .................     ",
"                                            ............        ...........     ...............     ",
"                                             ..........          ..........     ...............     ",
"                                              ........            ........       .............      ",
"                                               ......              ......         ...........       ",
"                                                                                                    ",
"                                                                                                    ",
"                                                                                                    ",
"                                                                                                    ",
"                                                                                                    "
};
