/* XPM */
static char *result[] = {
/* columns rows colors chars-per-pixel */
"25 25 228 2 ",
"   c black",
".  c #0D0600",
"X  c #0E0A01",
"o  c #120D01",
"O  c #130E01",
"+  c #170D00",
"@  c #1A1201",
"#  c #181102",
"$  c #1A1302",
"%  c #1D1501",
"&  c #1D1502",
"*  c #1E1602",
"=  c #1F1602",
"-  c #101011",
";  c #131313",
":  c gray8",
">  c #141415",
",  c #151515",
"<  c #11141E",
"1  c #1A1A1B",
"2  c #1C1C1D",
"3  c #1C1D1E",
"4  c #251900",
"5  c #261B03",
"6  c #1B1E27",
"7  c #202020",
"8  c #202021",
"9  c gray13",
"0  c #212122",
"q  c #222222",
"w  c #222223",
"e  c #29292A",
"r  c #292B2F",
"t  c #402C00",
"y  c #402C01",
"u  c #402D05",
"i  c #412E05",
"p  c #473505",
"a  c #553C05",
"s  c #553C06",
"d  c #593F06",
"f  c #493E1E",
"g  c #5A4007",
"h  c #5B4007",
"j  c #624506",
"k  c #624507",
"l  c #634706",
"z  c #634807",
"x  c #6B4C05",
"c  c #6B4D08",
"v  c #6D4D08",
"b  c #6E4E08",
"n  c #6F4E08",
"m  c #4A432D",
"M  c #464548",
"N  c #474649",
"B  c #46474E",
"V  c #4C4D49",
"C  c #474951",
"Z  c #5C5C5F",
"A  c #5C5D63",
"S  c #616167",
"D  c #626266",
"F  c #626267",
"G  c #626268",
"H  c gray42",
"J  c #6B6B6C",
"K  c #6B6A6E",
"L  c #6B6B73",
"P  c #747476",
"I  c #74757A",
"U  c #77777C",
"Y  c #77777D",
"T  c #76777E",
"R  c #77777E",
"E  c #78787E",
"W  c #78787F",
"Q  c #87680A",
"!  c #8F6C0A",
"~  c #907118",
"^  c #A4750B",
"/  c #A4750C",
"(  c #A8790C",
")  c #897123",
"_  c #B3800D",
"`  c #B6830D",
"'  c #B7830D",
"]  c #B9960D",
"[  c #C48E0E",
"{  c #C58E0E",
"}  c #C7900E",
"|  c #C9920F",
" . c #CFA00F",
".. c #D5A20F",
"X. c #CFA317",
"o. c #D6A313",
"O. c #EAB211",
"+. c #EFB610",
"@. c #EFB611",
"#. c #EFBA11",
"$. c #F0B610",
"%. c #F0B611",
"&. c #F0BA11",
"*. c #F2BC11",
"=. c #F5BE10",
"-. c #F6BE11",
";. c #F7D60D",
":. c #F5D40F",
">. c #F8D10E",
",. c #F8D10F",
"<. c #E1C010",
"1. c #E6C110",
"2. c #E7C51C",
"3. c #F4CF11",
"4. c #EAD810",
"5. c #F3D311",
"6. c #F4D411",
"7. c #F5D511",
"8. c #F7D711",
"9. c #F8D211",
"0. c #EBE907",
"q. c #EBEA07",
"w. c #ECE807",
"e. c #EDE309",
"r. c #EEE00B",
"t. c #EDE30D",
"y. c #EBE809",
"u. c #EBE909",
"i. c #EBEA09",
"p. c #EBE90A",
"a. c #EBE90B",
"s. c #EBEA0A",
"d. c #ECE809",
"f. c #ECE80A",
"g. c #ECE90A",
"h. c #ECEA0A",
"j. c #ECEA0B",
"k. c #EBE90D",
"l. c #ECEA0F",
"z. c #ECEB0F",
"x. c #EEE010",
"c. c #ECE310",
"v. c #EDE310",
"b. c #EFE210",
"n. c #EDE410",
"m. c #EDE510",
"M. c #EBEA11",
"N. c #ECE910",
"B. c #ECEA10",
"V. c #ECEB10",
"C. c #ECEA11",
"Z. c #ECEC10",
"A. c #ECED10",
"S. c #EAEB14",
"D. c #E2C826",
"F. c #EBDF25",
"G. c #EFEB27",
"H. c #E9EF25",
"J. c #EAEF25",
"K. c #EEEC29",
"L. c #EFED29",
"P. c #EFEE2A",
"I. c #EDE534",
"U. c #EEEE32",
"Y. c #F1EF3D",
"T. c #F2F037",
"R. c #F2F138",
"E. c #BDA840",
"W. c #BEB056",
"Q. c #8F8764",
"!. c #98947B",
"~. c #E9F644",
"^. c #EDF54C",
"/. c #F0F655",
"(. c #E8E06C",
"). c #ECFC6F",
"_. c #EFFD75",
"`. c #FCFA7E",
"'. c #909287",
"]. c #999B92",
"[. c #B1B1B4",
"{. c #B1B2B6",
"}. c #B6B5B6",
"|. c #B6B6B7",
" X c #EFEB87",
".X c #FCFB80",
"XX c #FDFB80",
"oX c #FEFD82",
"OX c #FFFF84",
"+X c #FCFC86",
"@X c #EBFC94",
"#X c #FFFF98",
"$X c #FFFE99",
"%X c #FFFF99",
"&X c #FFFF9C",
"*X c #C1C8A7",
"=X c #DCD9B1",
"-X c #FFFFAA",
";X c #E8F3B5",
":X c #FCFFB2",
">X c #FFFFBE",
",X c #C2C2C6",
"<X c #C5C5C9",
"1X c #C6C5C9",
"2X c #C5C5CA",
"3X c #C6C6CA",
"4X c #D4D4D5",
"5X c #D5D5D6",
"6X c #D7D7D7",
"7X c #D7D7D8",
"8X c #DADADB",
"9X c #DCE0CA",
"0X c #E4E3C7",
"qX c #EFF9C0",
"wX c #E4E7D6",
"eX c #FFFED3",
"rX c #FFFED4",
"tX c #FFFFD4",
"yX c #FFFFD6",
"uX c #FFFFD7",
"iX c #FFFFDA",
"pX c #FBFBDF",
"aX c #FFFFE3",
"sX c #FFFFE4",
"dX c #FFFFE7",
"fX c #FFFFE8",
"gX c #FFFFED",
"hX c None",
/* pixels */
"hXhXhXhXhXhXhX                  hXhXhXhXhXhXhXhXhX",
"hXhXhXhXhXhXhX; : , , > , , : ; hXhXhXhXhXhXhXhXhX",
"hXhXhXhXhXhX1 M Z D F S G G A B 6 hXhXhXhXhXhXhXhX",
"hXhXhXhXhX  e P [.1X<X,X2X3X{.I r   hXhXhXhXhXhXhX",
"hXhXhXhX- 7 V ].wXgXfXpXaXsX0X!.m % . hXhXhXhXhXhX",
"hXhXhX2 N H '.*XqX>X-X$X#X%X XW.) l t @ hXhXhXhXhX",
"hXhX  9 K }.9X;X@X_./.Y.T.R.I.D.X.( j *   hXhXhXhX",
"hXhX  q U 6XdX:X).~.J.C.h.j.t.:.*.} b =   hXhXhXhX",
"hXhX  w E 8XaX&X^.H.S.a.0.q.e.;.=.| n =   hXhXhXhX",
"hXhX  w Y 5XyX+XU.M.k.N.l.z.c.6.&.{ v =   hXhXhXhX",
"hXhX  w T 4XeX`.G.w.d.N.V.V.c.5.#.[ v =   hXhXhXhX",
"hXhX  w T 4XeX`.G.w.d.N.V.V.c.5.#.[ v =   hXhXhXhX",
"hXhX  w T 4XrX.XK.y.f.N.V.V.c.5.#.[ v =   hXhXhXhX",
"hXhX  w T 4XrX.XK.y.f.N.V.V.c.5.#.[ v =   hXhXhXhX",
"hXhX  w T 4XrX.XK.y.f.N.V.V.c.5.#.[ v =   hXhXhXhX",
"hXhX  w R 5XtXXXK.u.g.N.V.V.v.6.&.{ v =   hXhXhXhX",
"hXhX  w W 8XiXOXP.i.s.V.Z.A.m.8.-.| n =   hXhXhXhX",
"hXhX  w R 7XuXoXL.u.p.B.V.Z.n.7.*.} b =   hXhXhXhX",
"hXhX  0 L |.=X(.F.r.r.x.b.b.4.<. .( k *   hXhXhXhX",
"hXhXhX3 C J Q.E.2.>.,.3.9.9.1.] Q z i $ hXhXhXhXhX",
"hXhXhXhX< 8 f ~ o.$.+.O.@.%...! p & X hXhXhXhXhXhX",
"hXhXhXhXhX  4 x ^ ' ` _ ` ' / c 5   hXhXhXhXhXhXhX",
"hXhXhXhXhXhX+ y a h g d g g s u # hXhXhXhXhXhXhXhX",
"hXhXhXhXhXhXhXo O O O O O O O o hXhXhXhXhXhXhXhXhX",
"hXhXhXhXhXhXhX                  hXhXhXhXhXhXhXhXhX"
};
