/* XPM */
static char *result[] = {
/* columns rows colors chars-per-pixel */
"25 25 127 2 ",
"   c black",
".  c #110C01",
"X  c #130D01",
"o  c #130E01",
"O  c #180F00",
"+  c #181102",
"@  c #131313",
"#  c gray8",
"$  c #141415",
"%  c #141515",
"&  c #151515",
"*  c #1A1A1B",
"=  c #382600",
"-  c #392804",
";  c #3A2B04",
":  c #3C351F",
">  c #1B1C21",
",  c #3E3F3C",
"<  c #523905",
"1  c #523A06",
"2  c #593F06",
"3  c #5A3F07",
"4  c #5C4103",
"5  c #5A4007",
"6  c #5B4007",
"7  c #5C4207",
"8  c #7E5F09",
"9  c #7F651A",
"0  c #3E3D40",
"q  c #3E4047",
"w  c #59585C",
"e  c #595960",
"r  c #636365",
"t  c #616167",
"y  c #626166",
"u  c #636267",
"i  c #626268",
"p  c #646569",
"a  c #9A6E0A",
"s  c #9A6F0B",
"d  c #AD8B0C",
"f  c #B3800D",
"g  c #B5820D",
"h  c #B7830D",
"j  c #C9980E",
"k  c #C99A14",
"l  c #DEB910",
"z  c #EAB211",
"x  c #EBB211",
"c  c #EDB411",
"v  c #F1B610",
"b  c #F1B711",
"n  c #F8D20E",
"m  c #F4CF11",
"M  c #F5CF11",
"N  c #E8D410",
"B  c #F6D010",
"V  c #F6D111",
"C  c #F9D311",
"Z  c #EBE807",
"A  c #EEE10A",
"S  c #EEE00D",
"D  c #EBE808",
"F  c #EBE908",
"G  c #EBEA08",
"H  c #ECE80A",
"J  c #ECE80B",
"K  c #EBE90D",
"L  c #ECE90D",
"P  c #ECEB0C",
"I  c #ECEA0D",
"U  c #ECE90F",
"Y  c #ECEB0F",
"T  c #EEE010",
"R  c #EEE110",
"E  c #EFE310",
"W  c #ECE910",
"Q  c #ECEA10",
"!  c #ECEB10",
"~  c #ECEC10",
"^  c #ECED10",
"/  c #EBEB15",
"(  c #EAEC16",
")  c #DFC023",
"_  c #EBDF32",
"`  c #E9F02B",
"'  c #F1EE36",
"]  c #F1EE39",
"[  c #F1EF39",
"{  c #F1F039",
"}  c #F2F13A",
"|  c #B2A149",
" . c #868169",
".. c #E9F74D",
"X. c #F1F041",
"o. c #F0F85B",
"O. c #E6E07E",
"+. c #EFFE7C",
"@. c #878880",
"#. c #A7A7A9",
"$. c #A7A7AC",
"%. c #B6BCA0",
"&. c #EBFB9B",
"*. c #FFFD94",
"=. c #FFFE96",
"-. c #FFFF98",
";. c #FFFF9A",
":. c #FFFF9B",
">. c #D6D5B9",
",. c #FFFFAF",
"<. c #E6F0BC",
"1. c #C2C2C6",
"2. c #C2C2C7",
"3. c #C4C3C7",
"4. c #C4C4C8",
"5. c #C6C6CA",
"6. c #C6C6CB",
"7. c #D6D9CA",
"8. c #FFFFC1",
"9. c #FBFADE",
"0. c #FBFBDE",
"q. c #FBFBE0",
"w. c #FEFEE1",
"e. c #FFFFE5",
"r. c #FFFFEA",
"t. c #FDFFEC",
"y. c None",
/* pixels */
"y.y.y.y.y.y.                          y.y.y.y.y.y.",
"y.y.y.y.y.@ # & & $ $ $ $ $ $ % & & # @ y.y.y.y.y.",
"y.y.y.y.y.0 w y u t t t t t t t i i e q y.y.y.y.y.",
"y.y.y.  * r #.3.5.1.1.1.1.1.1.2.6.4.$.p >   y.y.y.",
"y.y.y.* , @.7.t.r.q.9.9.9.9.9.0.e.w.>. .: O y.y.y.",
"y.@ 0 r @.%.<.8.,.:.*.*.=.=.=.=.;.-.O.| 9 4 = . y.",
"  # w #.7.<.&.+.o.X.' ' ] ] ] [ } { _ ) k a < X   ",
"  & y 3.t.8.+...` / H J L L L L P I S B c g 5 o   ",
"  & u 5.r.,.o.` ( K Z Z D D D D G F A n v h 6 o   ",
"  $ t 1.q.:.X./ K W U U W W W W Y Q T M x f 2 o   ",
"  $ t 1.9.*.' H Z U W W W W W W ! Q T m z f 2 o   ",
"  $ t 1.9.*.' J Z U W W W W W W ! Q T m z f 2 o   ",
"  $ t 1.9.=.] L D W W W W W W W ! Q T m z f 2 o   ",
"  $ t 1.9.=.] L D W W W W W W W ! Q T m z f 2 o   ",
"  $ t 1.9.=.] L D W W W W W W W ! Q T m z f 2 o   ",
"  % t 2.0.=.[ L D W W W W W W W ! Q T M x f 2 o   ",
"  & i 6.e.;.} P G Y ! ! ! ! ! ! ^ ~ E C b h 6 o   ",
"  & i 4.w.-.{ I F Q Q Q Q Q Q Q ~ ! R V c g 3 o   ",
"  # e $.>.O._ S A T T T T T T T E R N l j s 1 X   ",
"y.@ q p  .| ) B n M m m m m m M C V l d 8 7 - . y.",
"y.y.y.> : 9 k c v x z z z z z x b c j 8 ; + y.y.y.",
"y.y.y.  O 4 a g h f f f f f f f h g s 7 +   y.y.y.",
"y.y.y.y.y.= < 5 6 2 2 2 2 2 2 2 6 3 1 - y.y.y.y.y.",
"y.y.y.y.y.. X o o o o o o o o o o o X . y.y.y.y.y.",
"y.y.y.y.y.y.                          y.y.y.y.y.y."
};
