/* XPM */
static char *result[] = {
/* columns rows colors chars-per-pixel */
"25 25 137 2 ",
"   c black",
".  c #000106",
"X  c #0F0700",
"o  c #100B01",
"O  c #120D01",
"+  c #130E01",
"@  c #121213",
"#  c gray8",
"$  c #13161F",
"%  c #241700",
"&  c #231800",
"*  c #231903",
"=  c #231A03",
"-  c #251A03",
";  c #241B07",
":  c #2B1F03",
">  c #2E2003",
",  c #2E2103",
"<  c #382700",
"1  c #382804",
"2  c #262421",
"3  c #262625",
"4  c #262628",
"5  c #26272A",
"6  c #28282B",
"7  c #2F2F31",
"8  c #2F2F32",
"9  c #292B34",
"0  c #313234",
"q  c #323234",
"w  c #3D3D3E",
"e  c #483100",
"r  c #483202",
"t  c #493305",
"y  c #483306",
"u  c #553C06",
"i  c #594206",
"p  c #5A4B1E",
"a  c #6A4E08",
"s  c #6B4F0A",
"d  c #735107",
"f  c #735108",
"g  c #3D3E43",
"h  c #5D5740",
"j  c #4F4F53",
"k  c #4F4F54",
"l  c #4F5057",
"z  c #5F5F57",
"x  c #50515A",
"c  c #5C5C62",
"v  c #72726E",
"b  c #737370",
"n  c #805B07",
"m  c #815B09",
"M  c #805C09",
"N  c #815C09",
"B  c #825C09",
"V  c #825C0A",
"C  c #845D0A",
"Z  c #947309",
"A  c #A3750B",
"S  c #A87F0B",
"D  c #B4830D",
"F  c #B4840E",
"G  c #A98317",
"H  c #97802D",
"J  c #D39A0F",
"K  c #D49B0F",
"L  c #D69C0F",
"P  c #D99F0F",
"I  c #D99F10",
"U  c #C8A40A",
"Y  c #D4A80C",
"T  c #D4A111",
"R  c #D5AC17",
"E  c #CCB438",
"W  c #E4C609",
"Q  c #F2C00D",
"!  c #F3C00D",
"~  c #F5C20C",
"^  c #F5C20D",
"/  c #F8C40B",
"(  c #F8C50D",
")  c #F2D706",
"_  c #F4D803",
"`  c #F1D708",
"'  c #F1D709",
"]  c #F2D808",
"[  c #F4DA08",
"{  c #E5C216",
"}  c #EADB1B",
"|  c #EDE717",
" . c #EDE71B",
".. c #EDE71D",
"X. c #EDE81E",
"o. c #EEE91E",
"O. c #E6D024",
"+. c #EDE83F",
"@. c #9A915D",
"#. c #EAE35A",
"$. c #CFC363",
"%. c #FAFA69",
"&. c #F9F96A",
"*. c #F9FA6A",
"=. c #FAFB6B",
"-. c #FCFC68",
";. c #FCFE6D",
":. c #EDED76",
">. c #7D7D84",
",. c #7D7D85",
"<. c #8A8A8E",
"1. c #9D9D82",
"2. c #8B8B90",
"3. c #8C8C94",
"4. c #8C8D94",
"5. c #8E8E95",
"6. c #8F8F97",
"7. c #B3AF95",
"8. c #B4B4A1",
"9. c #B0B0B5",
"0. c #D3D390",
"q. c #EFEC8C",
"w. c #C2C2BD",
"e. c #C2C2BE",
"r. c #E1DEA5",
"t. c #E1E2B0",
"y. c #E3E2C7",
"u. c #FFFFC6",
"i. c #FFFFC7",
"p. c #FFFFC8",
"a. c #FFFFCA",
"s. c #FFFFCC",
"d. c #E4E4DF",
"f. c #E4E4E0",
"g. c #E7E7E2",
"h. c #EAEAE6",
"j. c None",
/* pixels */
"j.j.j.j.j.j.j.j.j.j.j.      j.j.j.j.j.j.j.j.j.j.j.",
"j.j.j.j.j.j.j.j.j.j.j.# # # j.j.j.j.j.j.j.j.j.j.j.",
"j.j.j.j.j.j.j.j.j.j.6 j c l 9 j.j.j.j.j.j.j.j.j.j.",
"j.j.j.j.j.j.j.j.j.  w <.9.2.g . j.j.j.j.j.j.j.j.j.",
"j.j.j.j.j.j.j.j.@ 3 z 8.y.7.h ; X j.j.j.j.j.j.j.j.",
"j.j.j.j.j.j.j.4 k b 1.0.q.$.H s e & j.j.j.j.j.j.j.",
"j.j.j.j.j.j.  7 >.e.t.:.+.O.R F d :   j.j.j.j.j.j.",
"j.j.j.j.j.j.  q 5.g.i.%. .) ~ L V ,   j.j.j.j.j.j.",
"j.j.j.j.j.j.  q 6.h.a.-.| _ / P C ,   j.j.j.j.j.j.",
"j.j.j.j.j.j.  0 4.f.u.&...` ! K N >   j.j.j.j.j.j.",
"j.j.j.j.j.j.  0 3.d.u.&...' Q J m >   j.j.j.j.j.j.",
"j.j.j.j.j.j.  0 3.d.u.&...' Q J m >   j.j.j.j.j.j.",
"j.j.j.j.j.j.  0 3.d.u.&...' Q J m >   j.j.j.j.j.j.",
"j.j.j.j.j.j.  0 3.d.u.&...' Q J m >   j.j.j.j.j.j.",
"j.j.j.j.j.j.  0 3.d.u.&...' Q J m >   j.j.j.j.j.j.",
"j.j.j.j.j.j.  0 4.f.u.*...' ! K N >   j.j.j.j.j.j.",
"j.j.j.j.j.j.  q 6.h.s.;.o.[ ( I C ,   j.j.j.j.j.j.",
"j.j.j.j.j.j.  q 5.g.p.=.X.] ^ L B ,   j.j.j.j.j.j.",
"j.j.j.j.j.j.  8 ,.w.r.#.} W Y D f :   j.j.j.j.j.j.",
"j.j.j.j.j.j.j.5 x v @.E { U Z a t * j.j.j.j.j.j.j.",
"j.j.j.j.j.j.j.j.$ 2 p G T S i = o j.j.j.j.j.j.j.j.",
"j.j.j.j.j.j.j.j.j.  < n A M 1   j.j.j.j.j.j.j.j.j.",
"j.j.j.j.j.j.j.j.j.j.% r u y - j.j.j.j.j.j.j.j.j.j.",
"j.j.j.j.j.j.j.j.j.j.j.O + O j.j.j.j.j.j.j.j.j.j.j.",
"j.j.j.j.j.j.j.j.j.j.j.      j.j.j.j.j.j.j.j.j.j.j."
};
