/* XPM */
static char *result[] = {
/* columns rows colors chars-per-pixel */
"25 25 21 1 ",
"  c black",
". c #050400",
"X c #120D01",
"o c #130E01",
"O c #2D2103",
"+ c #3D2C04",
"@ c #423005",
"# c #433005",
"$ c #4B3605",
"% c #553E06",
"& c #825E09",
"* c #9D720B",
"= c #9E720B",
"- c #9E730B",
"; c #A1750C",
": c #A3760C",
"> c #D0970F",
", c #D2980F",
"< c #D3990F",
"1 c #D89D10",
"2 c None",
/* pixels */
"22222222222   22222222222",
"22222222222XoX22222222222",
"2222222222O$%$O2222222222",
"222222222.+&:&+.222222222",
"22222222 .@*>*@. 22222222",
"22222222 .#;1;#. 22222222",
"22222222 .@-<-@. 22222222",
"22222222 .@=,=@. 22222222",
"22222222 .@=,=@. 22222222",
"22222222 .@=,=@. 22222222",
"22222222 .@=,=@. 22222222",
"22222222 .@=,=@. 22222222",
"22222222 .@=,=@. 22222222",
"22222222 .@=,=@. 22222222",
"22222222 .@=,=@. 22222222",
"22222222 .@=,=@. 22222222",
"22222222 .@=,=@. 22222222",
"22222222 .@=,=@. 22222222",
"22222222 .@-<-@. 22222222",
"22222222 .#;1;#. 22222222",
"22222222 .@*>*@. 22222222",
"222222222.+&:&+.222222222",
"2222222222O$%$O2222222222",
"22222222222XoX22222222222",
"22222222222   22222222222"
};
