/* XPM */
static char *result[] = {
/* columns rows colors chars-per-pixel */
"50 50 172 2 ",
"   c #000000",
".  c #080601",
"X  c #090909",
"o  c #080708",
"O  c #110C01",
"+  c #1D1402",
"@  c #080B12",
"#  c #121213",
"$  c #211702",
"%  c #211802",
"&  c #281C02",
"*  c #231F13",
"=  c #2D2103",
"-  c #352502",
";  c #3D2C04",
":  c #3E3212",
">  c #1F1F20",
",  c #1F222C",
"<  c #242425",
"1  c #2C2C2D",
"2  c #2A2C32",
"3  c #313132",
"4  c #3A3A3C",
"5  c #422E03",
"6  c #453005",
"7  c #4D3504",
"8  c #513B06",
"9  c #413D30",
"0  c #5E4206",
"q  c #564106",
"w  c #634605",
"e  c #6D4D08",
"r  c #654907",
"t  c #704F08",
"y  c #735208",
"u  c #7C5A08",
"i  c #624C12",
"p  c #594F2D",
"a  c #796527",
"s  c #3A3C43",
"d  c gray26",
"f  c #4A4B4F",
"g  c #454549",
"h  c #4A4B51",
"j  c #595958",
"k  c #54545A",
"l  c #7C744F",
"z  c #676457",
"x  c #66666C",
"c  c #6A6A6A",
"v  c #6C6D74",
"b  c #75747A",
"n  c #89650A",
"m  c #92680B",
"M  c #9C6F0B",
"N  c #9D700B",
"B  c #92720A",
"V  c #896811",
"C  c #A0720C",
"Z  c #9D7F21",
"A  c #7E8077",
"S  c #AF820D",
"D  c #B6840D",
"F  c #B08C0C",
"G  c #BF940E",
"H  c #B08411",
"J  c #B39A34",
"K  c #C58E0E",
"L  c #C6900E",
"P  c #CA930F",
"I  c #CF9A0F",
"U  c #C89915",
"Y  c #CAA50E",
"T  c #D8B70F",
"R  c #DDAD12",
"E  c #E0A710",
"W  c #E3A910",
"Q  c #E9AD11",
"!  c #EEB911",
"~  c #E5BD15",
"^  c #F1BB11",
"/  c #CFAE25",
"(  c #F9CC0F",
")  c #F6D60D",
"_  c #F1DD0C",
"`  c #E7CA16",
"'  c #F5C412",
"]  c #F4C911",
"[  c #F9CD12",
"{  c #EFDD10",
"}  c #EAD410",
"|  c #F3D411",
" . c #F2DD11",
".. c #EBE807",
"X. c #EDE30B",
"o. c #ECE90B",
"O. c #ECE310",
"+. c #ECEA10",
"@. c #EAEE1F",
"#. c #F2E011",
"$. c #DBC432",
"%. c #EBDA22",
"&. c #E6D73E",
"*. c #EEEB26",
"=. c #EFED29",
"-. c #ECE425",
";. c #EAF12C",
":. c #EEEF36",
">. c #E9F33B",
",. c #968643",
"<. c #A49D77",
"1. c #B6AB63",
"2. c #C9B84B",
"3. c #EEE747",
"4. c #EBF548",
"5. c #F4F24D",
"6. c #ECF753",
"7. c #F6F551",
"8. c #F4F65B",
"9. c #DFD460",
"0. c #EBFA63",
"q. c #F5FA67",
"w. c #F0EB72",
"e. c #EBFC76",
"r. c #FCFA7D",
"t. c #F5FE76",
"y. c #7A7A81",
"u. c #818181",
"i. c #89888C",
"p. c #949489",
"a. c #898A91",
"s. c #A5A899",
"d. c #9E9EA4",
"f. c #A7A7A7",
"g. c #A9A9AD",
"h. c #BBBDA8",
"j. c #ABABB2",
"k. c #BCBEB6",
"l. c #D6CF82",
"z. c #CBC79E",
"x. c #FEFE81",
"c. c #F8FE87",
"v. c #F0EC9C",
"b. c #EDFC9E",
"n. c #F8FF93",
"m. c #EBFC88",
"M. c #CBCFBB",
"N. c #D7DEB9",
"B. c #CDD5AC",
"V. c #FFFFA0",
"C. c #FFFFAD",
"Z. c #E6EAB8",
"A. c #EFFBB5",
"S. c #FEFFB3",
"D. c #FFFFBE",
"F. c #E7F5A9",
"G. c #C5C5C5",
"H. c #DEDDCE",
"J. c #D6D6D7",
"K. c gray86",
"L. c #DEDFD6",
"P. c #EFF7C9",
"I. c #FFFFC7",
"U. c #FFFFCE",
"Y. c #EAEFD6",
"T. c #FFFFD2",
"R. c #FFFFDB",
"E. c #F3F3E3",
"W. c #FEFFE5",
"Q. c #F9FAEC",
"!. c #F1F2E8",
"~. c None",
/* pixels */
"~.~.~.~.~.~.~.~.~.~.~.                                                        ~.~.~.~.~.~.~.~.~.~.~.",
"~.~.~.~.~.~.~.~.~.~.~.                                                        ~.~.~.~.~.~.~.~.~.~.~.",
"~.~.~.~.~.~.~.~.~.~.~.X X X X o X X X X X X X X X X X X X X X X X X X @ X X X ~.~.~.~.~.~.~.~.~.~.~.",
"~.~.~.~.~.~.~.~.~.~.~.* < < < < < < < < < < < < < < < < < < < < < < < < < < > ~.~.~.~.~.~.~.~.~.~.~.",
"~.~.~.~.~.~.~.~.~.~.2 4 g g f f h h f f f f h h f f h h h h f f h h h h f g s 2 ~.~.~.~.~.~.~.~.~.~.",
"~.~.~.~.~.~.~.~.~.> s k c b b y.y.y.y.y.y.y.y.b y.y.y.b y.y.y.y.y.u.y.y.b x k s < ~.~.~.~.~.~.~.~.~.",
"~.~.~.~.~.~.~.  o < s x i.d.g.j.j.j.j.j.j.j.j.j.j.j.j.j.j.j.j.j.j.j.j.g.d.a.v h 2 @   ~.~.~.~.~.~.~.",
"~.~.~.~.~.~.    # 2 k <.f.G.J.K.K.K.K.K.J.J.J.J.J.J.J.J.J.J.J.J.K.K.K.J.G.f.u.k 3 #     ~.~.~.~.~.~.",
"~.~.~.~.~.~.X # < g c p.k.H.!.Q.Q.Q.E.!.E.E.E.E.E.E.E.E.E.E.E.E.Q.Q.Q.E.H.h.p.z 9 * O . ~.~.~.~.~.~.",
"~.~.~.~.~.* < 3 d j A s.M.Y.W.W.W.R.R.T.T.T.U.U.T.T.T.T.T.T.T.T.T.R.T.T.P.z.<.l p 6 & $ + ~.~.~.~.~.",
"~.~.~.~.1 4 f j j <.p.h.N.P.T.T.I.D.S.C.C.C.C.C.C.C.C.C.C.C.C.C.S.S.C.C.v.9.<.,.a i 8 5 - & ~.~.~.~.",
"    X > 4 k c u.a.s.h.B.Z.A.A.C.V.n.c.r.r.r.r.r.r.r.r.r.r.r.r.r.x.x.r.r.w.9.2.J Z V y w 7 - + .     ",
"    X < d x i.f.k.M.N.Z.F.b.m.c.t.q.8.7.5.5.5.5.5.7.5.5.5.5.5.5.7.7.7.5.3.&.$./ U H M u 0 5 + .     ",
"    o < g v d.G.L.Y.P.A.b.m.e.0.6.4.:.=.*.*.*.*.*.=.-.=.=.=.=.=.=.;.=.=.%.%.%.~ R U D m e 5 $ .     ",
"    X < f b g.J.!.W.T.A.m.e.0.6.>.;.*.+.+.o.+.O.+.+.+.+.+.+.O.+.+.+.+.+.O. .| ] ! E K M t 6 % .     ",
"    X < f u.j.L.Q.Q.U.C.c.0.4.>.;.*.+.o.....o.X.o.o...o.....o.o.o.o.o.X.O.{ ) [ ^ Q P C t 6 % .     ",
"    X < h y.j.K.Q.W.I.V.t.6.>.;.*.@.o...X.................X...............o.) ( ^ Q I C t 6 % .     ",
"    X < h y.j.K.Q.R.I.n.q.4.;.*.+.+.+.o.........o.....X...o.o.........+.X.X.) [ ^ Q P C t 6 % .     ",
"    X < h u.j.J.E.R.S.c.8.:.@.+.+.+.+.o.+.X.X.+.+.o.+.+.o.+.+.o.+.+.+.o.X.O.| ] ^ W P N t 6 $ .     ",
"    o < h y.g.J.E.T.C.x.5.*.@.o.o.o.+.+.+.+.+.+.+.+.+.+.+.+.+.+.+.+.+.+.+.| | ] ^ W L N t 6 $ .     ",
"    X < f y.j.J.E.T.C.r.5.*.o.....o.+.+.+.+.+.+.+.+.+.+.+.+.+.+.+.+.+.+.O.{ | ] ^ W L N t 6 $ .     ",
"    X < f y.j.J.E.T.C.r.5.*.o.....o.o.+.+.+.+.+.+.+.+.O.+.+.+.+.+.+.+.+.{ { | ] ! W L N t 6 $ .     ",
"    X < f y.g.J.E.T.C.r.5.*.O.....o.o.+.+.+.+.+.+.+.+.+.+.+.+.+.+.+.+.+.O.{ | ] ! W K N t 6 $ .     ",
"    X < f y.j.J.E.U.C.r.5.*.+.......o.+.+.+.+.+.O.+.+.+.+.+.+.+.o.+.+.O.O.{ | ] ^ W L N t 6 $ .     ",
"    X < h y.j.J.E.U.C.r.5.*.+.+.....o.+.+.+.+.+.+.+.o.+.+.+.+.+.+.+.+.o.+.#.| ] ^ W K M t 6 % .     ",
"    X < h y.j.J.E.T.C.r.5.=.+.o...X.+.+.+.+.+.+.+.+.X.+.+.+.+.+.+.+.+.+.+.{ | ] ^ W K C t 6 % .     ",
"    X < h b j.J.E.T.C.r.5.*.O.....o.X.o.X.+.O.+.+.+.+.+.+.+.+.+.+.+.+.+.O.{ | ] ^ W K M t 6 % .     ",
"    X < h y.j.J.!.T.C.r.5.*.+.o...o.+.+.+.+.+.+.+.+.+.O.+.+.+.+.+.+.+.+.O.{ | ] ! W K M t 6 % .     ",
"    X < f b j.J.E.T.C.r.5.*.+.X.....+.+.+.+.+.+.+.+.o.X.+.+.+.+.+.+.+.+.O.{ | ] ^ W K M t 6 % .     ",
"    X < h y.j.J.E.T.C.r.5.;.+.o.X...o.+.+.+.+.+.+.+.+.+.+.O.+.+.+.+.o.+.O. .| ] ! W K M t 5 % .     ",
"    X < h y.j.J.E.T.C.r.5.*.+.o...o.+.+.+.O.+.+.+.+.+.+.+.+.+.+.+.+.+.+.O.{ | ] ^ W K N t 6 % .     ",
"    X < h y.j.J.!.T.C.x.7.*.+.....o.o.+.+.+.+.+.+.+.+.+.O.+.+.+.+.+.+.+.+.{ | ] ^ W L C t 6 % .     ",
"    X < h y.j.K.Q.R.S.x.5.=.+.o...o.o.+.+.+.+.+.+.+.+.+.+.+.+.+.+.+.+.+.X. .| [ ^ Q P C t 6 $ .     ",
"    X < h y.j.K.Q.R.S.x.7.=.+.o...o.+.+.+.+.+.+.+.+.+.+.+.+.+.+.+.+.+.+.+.#. .[ ' Q P C t 6 $ .     ",
"    X < h y.j.K.Q.R.S.r.7.=.+.o...o.o.+.+.+.+.+.+.+.+.+.o.+.+.+.+.+.+.+.O. .) ( ^ Q P C y 6 % .     ",
"    X < h y.j.J.E.U.C.r.5.=.+...o.o.o.+.+.+.+.+.+.+.o.+.+.+.+.+.+.+.+.+.O._ } ' ^ W K C t 6 $ .     ",
"    X < g b d.G.H.P.v.w.3.-.X.X.X.X.X.O.O.O.O.X.+.o.O.O.O.O.O.O.+.+.+.O.{ } ] ~ Q I D m e 6 % .     ",
"    o < g x a.g.h.z.l.9.&.-. ._ _ _ _  .{ { { { #.X.{ O.{ { {  .+.+. . .} ` T Y G C M u 8 6 $ .     ",
"    X < s k v u.i.<.1.2.$.` | ) ) ) | | | | | | | | | | | | | | ) )  .| ` T Y F N V u i 7 - + .     ",
"~.~.~.~.2 s h j z l ,.J / ~ ] [ ( ] ] ] ] ] ] ' ] ] ] ] ] ] ] ] [ [ [ [ T Y F B u r 8 6 - & ~.~.~.~.",
"~.~.~.~.~., 2 3 9 p a Z U R ! ^ ^ ^ ^ ^ ^ ^ ^ ^ ! ! ^ ^ ^ ! ^ ^ ^ ' ^ ! R G B u q ; = % + ~.~.~.~.~.",
"~.~.~.~.~.~.@ # * 6 i V H U W Q Q Q Q W W W W W W W W W W W W W Q Q Q W I F n r ; + O . ~.~.~.~.~.~.",
"~.~.~.~.~.~.    O - 8 y M D K P P P L L K L L L K L K L K L K P P P P K D N y 8 = O     ~.~.~.~.~.~.",
"~.~.~.~.~.~.~.    $ 5 w u m M C C C C C M M M N M N N N M N N N C C N N m u w : = .   ~.~.~.~.~.~.~.",
"~.~.~.~.~.~.~.~.~.+ - 7 w r t t t y t t t t t t t t t t t t t t y y y t e 0 7 - + ~.~.~.~.~.~.~.~.~.",
"~.~.~.~.~.~.~.~.~.~.& - ; 5 5 5 6 5 6 6 6 6 6 6 6 6 5 6 6 6 6 6 6 6 6 6 6 ; - = ~.~.~.~.~.~.~.~.~.~.",
"~.~.~.~.~.~.~.~.~.~.~.+ % % $ $ $ % $ % % % $ $ $ $ % % $ $ $ % % % % % % + + ~.~.~.~.~.~.~.~.~.~.~.",
"~.~.~.~.~.~.~.~.~.~.~.. . . . . . . . . . . . . . . . . . . . . . . . . . . . ~.~.~.~.~.~.~.~.~.~.~.",
"~.~.~.~.~.~.~.~.~.~.~.                                                        ~.~.~.~.~.~.~.~.~.~.~.",
"~.~.~.~.~.~.~.~.~.~.~.                                                        ~.~.~.~.~.~.~.~.~.~.~."
};
