/* XPM */
static char *result[] = {
/* columns rows colors chars-per-pixel */
"50 50 220 2 ",
"   c #010100",
".  c #0C0C0D",
"X  c #0F0A01",
"o  c #120D01",
"O  c #1E1402",
"+  c #1D180D",
"@  c #131415",
"#  c #17181B",
"$  c #211703",
"%  c #241A03",
"&  c #2B1E03",
"*  c #2D2003",
"=  c #2C230C",
"-  c #332404",
";  c #3B2A04",
":  c #3A2A07",
">  c #27241C",
",  c #3B3115",
"<  c #1F1F21",
"1  c #232325",
"2  c #272729",
"3  c #2A2A2B",
"4  c #2D2D33",
"5  c #252832",
"6  c #313135",
"7  c #3B3B3C",
"8  c #30302E",
"9  c #412E04",
"0  c #453205",
"q  c #4B3506",
"w  c #4E3906",
"e  c #4B3709",
"r  c #533B06",
"t  c #493A13",
"y  c #433D2C",
"u  c #5B4106",
"i  c #594209",
"p  c #594818",
"a  c #4F421C",
"s  c #694B07",
"d  c #6C4E08",
"f  c #644907",
"g  c #745308",
"h  c #78590A",
"j  c #6B571B",
"k  c #725710",
"l  c #7F6209",
"z  c #46443D",
"x  c #585137",
"c  c #6A5D30",
"v  c #756631",
"b  c #393B44",
"n  c #434444",
"m  c #4B4B4D",
"M  c #45464C",
"N  c #4E4E54",
"B  c #515153",
"V  c #55555C",
"C  c #5A5A56",
"Z  c #67665E",
"A  c #767056",
"S  c #5E5F64",
"D  c #66666B",
"F  c #676866",
"G  c #74746C",
"H  c #74757B",
"J  c #7A7A7D",
"K  c #747475",
"L  c #6A6B70",
"P  c #846109",
"I  c #8A670B",
"U  c #956D0B",
"Y  c #996F0B",
"T  c #9A780B",
"R  c #896C18",
"E  c #A77C0D",
"W  c #A27E16",
"Q  c #8E782B",
"!  c #837849",
"~  c #AB820C",
"^  c #B4860D",
"/  c #BB8A0D",
"(  c #B7880D",
")  c #BC940E",
"_  c #B4920D",
"`  c #BB951A",
"'  c #AC8514",
"]  c #A78F30",
"[  c #B8A33D",
"{  c #C18E0E",
"}  c #C4910E",
"|  c #C99A0F",
" . c #CA9A11",
".. c #CBA70E",
"X. c #D4A20F",
"o. c #D5A90F",
"O. c #D8B80F",
"+. c #DCA710",
"@. c #DEA910",
"#. c #D4A715",
"$. c #DEB917",
"%. c #E1AA0F",
"&. c #E1AA10",
"*. c #EBBB11",
"=. c #E5B511",
"-. c #EEBD0F",
";. c #CBAE2B",
":. c #F1CB0F",
">. c #EFDC0F",
",. c #EFD40F",
"<. c #F2D40E",
"1. c #F0DD0D",
"2. c #E3C610",
"3. c #EECA11",
"4. c #EAC413",
"5. c #F3CA11",
"6. c #F4C911",
"7. c #EED311",
"8. c #EEDC11",
"9. c #ECD719",
"0. c #F3D511",
"q. c #F1DE11",
"w. c #EDE40D",
"e. c #ECEA0D",
"r. c #EEE511",
"t. c #ECEA11",
"y. c #ECEB19",
"u. c #EEE51A",
"i. c #F0E511",
"p. c #D9C438",
"a. c #E5CB23",
"s. c #EAD929",
"d. c #EBEE23",
"f. c #EEEB2B",
"g. c #EDE32D",
"h. c #EAF02F",
"j. c #EEEE32",
"k. c #F1EE33",
"l. c #ECF23E",
"z. c #EBF132",
"x. c #F1F035",
"c. c #F0F13C",
"v. c #93864E",
"b. c #A1934E",
"n. c #B4A95E",
"m. c #86887B",
"M. c #8E8A6E",
"N. c #A29A68",
"B. c #B8B074",
"V. c #CABA51",
"C. c #E5D744",
"Z. c #ECF64F",
"A. c #EEF246",
"S. c #EEF658",
"D. c #F4F354",
"F. c #F6F45C",
"G. c #F8F65C",
"H. c #EFEA4B",
"J. c #DED364",
"K. c #D1C97B",
"L. c #EDF865",
"P. c #F6F868",
"I. c #EDFB78",
"U. c #F6FA7A",
"Y. c #EEE874",
"T. c #7B7B82",
"R. c #858684",
"E. c #97968B",
"W. c #9A9A94",
"Q. c #9D9D9E",
"!. c #939494",
"~. c #8F9187",
"^. c #A1A397",
"/. c #B5B89C",
"(. c #ADAB8E",
"). c #A2A2A4",
"_. c #ADAEA4",
"`. c #B7B7AD",
"'. c #BEBEB5",
"]. c #BBBCB5",
"[. c #ADB1A3",
"{. c #C1BC88",
"}. c #BFC2AC",
"|. c #D0CA8D",
" X c #FCFC86",
".X c #FCFC8A",
"XX c #F4FA85",
"oX c #E6E293",
"OX c #F8FE97",
"+X c #EEF697",
"@X c #C5C8AA",
"#X c #D9D7A5",
"$X c #C1C2B7",
"%X c #C2C3BA",
"&X c #C8CABB",
"*X c #D9D9BB",
"=X c #D5D7B9",
"-X c #CFD2B1",
";X c #DCE5AF",
":X c #E9F6A4",
">X c #F9FAA5",
",X c #FAFBA9",
"<X c #F7F9A9",
"1X c #ECEDB5",
"2X c #EDEDBA",
"3X c #E6EABB",
"4X c #ECF5B3",
"5X c #FDFDB3",
"6X c #F9FCB7",
"7X c #EBE9A7",
"8X c #DADBC3",
"9X c #D8DAC7",
"0X c #CFD2C0",
"qX c #E2E2CB",
"wX c #E9ECC4",
"eX c #F6F7CA",
"rX c #F9FBC5",
"tX c #F8FAD4",
"yX c #F0F1CA",
"uX c None",
/* pixels */
"uXuXuXuXuXuXuXuXuXuXuXuXuXuX                                uXuXuXuXuXuXuXuXuXuXuXuXuXuXuXuXuXuXuXuX",
"uXuXuXuXuXuXuXuXuXuXuXuXuXuX                                uXuXuXuXuXuXuXuXuXuXuXuXuXuXuXuXuXuXuXuX",
"uXuXuXuXuXuXuXuXuXuXuXuXuXuX@ @ @ @ # @ @ @ # # # @ @ # @ @ uXuXuXuXuXuXuXuXuXuXuXuXuXuXuXuXuXuXuXuX",
"uXuXuXuXuXuXuXuXuXuXuXuXuX1 2 3 4 6 6 6 6 6 6 6 6 6 6 4 4 5 2 uXuXuXuXuXuXuXuXuXuXuXuXuXuXuXuXuXuXuX",
"uXuXuXuXuXuXuXuXuXuXuXuXuX4 7 m B B V V V V V V V V V V N M b 5 uXuXuXuXuXuXuXuXuXuXuXuXuXuXuXuXuXuX",
"uXuXuXuXuXuXuXuXuXuXuXuX6 n B Z K J T.T.R.T.T.R.T.T.H L L S M 4 # uXuXuXuXuXuXuXuXuXuXuXuXuXuXuXuXuX",
"uXuXuXuXuXuXuXuXuXuXuX8 n B F J !.Q.Q.).Q.Q.).).).Q.!.!.R.K V 7 > . uXuXuXuXuXuXuXuXuXuXuXuXuXuXuXuX",
"uXuXuXuXuXuXuXuXuX# 2 7 m Z J E._.].%X%X%X$X%X%X%X$X`./.W.~.A z 3 + o uXuXuXuXuXuXuXuXuXuXuXuXuXuXuX",
"uXuXuXuXuXuXuXuXuX1 6 n C G m.[.0X9XqXqXqXqXqXqXqX8X-X@X/.N.! B y & $ uXuXuXuXuXuXuXuXuXuXuXuXuXuXuX",
"uXuXuXuXuXuXuXuX1 6 z C F m.^.}.8XtXtXtXeXeXeXeXeXyX3X#X{.(.! v t t - & uXuXuXuXuXuXuXuXuXuXuXuXuXuX",
"uXuXuXuXuXuXuX3 7 m C G m.^./.-XwXrXrXrX5X5X5X5X,X<X7XoX|.K.N.Q j r 0 ; & uXuXuXuXuXuXuXuXuXuXuXuXuX",
"uXuXuXuXuXuX1 7 B F J ~.^./.-X;X4X6X,XOXOX.X.X.X XU.U.Y.J.V.[ Q R h f r : & O uXuXuXuXuXuXuXuXuXuXuX",
"uXuXuXuXuX. 1 M F T.W.[.}.=X;X:X+X+XXXI.P.G.G.D.D.D.H.H.s.p.;. .' Y h r 9 * $ o uXuXuXuXuXuXuXuXuXuX",
"uXuXuXuX  . 1 m K !._.%X8X3X4X:XXXI.L.Z.A.c.x.z.k.k.g.g.s.a.a.#.} E I f q - $ o uXuXuXuXuXuXuXuXuXuX",
"uXuXuXuX  . 2 N H Q.`.0XwXwX4X+XI.S.Z.A.x.f.d.d.u.u.u.u.9.a.4.=.X.( U s q * % o   uXuXuXuXuXuXuXuXuX",
"uXuXuXuX  . 2 N J ).].9XwXrX,XXXL.Z.l.h.d.y.t.t.t.t.i.i.q.9.4.*.+.{ U d q - % o   uXuXuXuXuXuXuXuXuX",
"uXuXuXuX  . 2 N T.).].8XwXrX,XU.L.l.h.d.y.y.t.t.e.e.e.w.1.<.:.-.&.{ Y d q ; $ o   uXuXuXuXuXuXuXuXuX",
"uXuXuXuX  . 2 B T.).'.8XyX5XOXU.Z.z.d.y.t.e.e.e.e.e.w.w.1.<.:.-.%.{ Y d 0 - $ o   uXuXuXuXuXuXuXuXuX",
"uXuXuXuX  . 2 N T.).%X8X2X5XOXP.A.h.y.t.e.e.e.e.e.e.e.w.1.<.:.-.&.} Y d q - $ o   uXuXuXuXuXuXuXuXuX",
"uXuXuXuX  . 2 N T.).%X*X2X<X.XP.z.d.t.e.e.e.e.e.e.e.e.e.1.,.:.-.&.} Y d q - $ o X uXuXuXuXuXuXuXuXuX",
"uXuXuXuX  . 2 N T.).'.*X1X>X XG.z.y.w.e.e.e.e.e.e.t.r.w.1.,.3.*.+.{ Y d e - $ o   uXuXuXuXuXuXuXuXuX",
"uXuXuXuX  . 2 N T.).'.*X1X>X XG.z.y.e.e.e.e.e.e.e.e.r.r.1.,.3.*.@.{ U d e - $ o   uXuXuXuXuXuXuXuXuX",
"uXuXuXuX  . 2 N T.).'.*X1X>X XG.x.t.e.e.e.e.e.e.t.t.r.r.>.,.3.*.+.{ U d q - $ o   uXuXuXuXuXuXuXuXuX",
"uXuXuXuX  . 2 N T.).'.*X1X>X XG.x.t.e.e.e.w.e.e.e.t.r.w.>.,.3.*.@./ U d q - O o X uXuXuXuXuXuXuXuXuX",
"uXuXuXuX  . 2 N T.Q.'.*X1X>X XG.x.t.e.e.e.e.e.e.t.t.t.i.q.7.3.*.+.{ U d q ; $ o   uXuXuXuXuXuXuXuXuX",
"uXuXuXuX  . 2 N T.).'.*X1X>X XG.x.t.e.e.t.t.e.e.e.t.w.r.8.0.3.*.+.{ U d 0 - $ o   uXuXuXuXuXuXuXuXuX",
"uXuXuXuX  . 2 N T.).'.*X1X>X XG.k.y.e.e.e.e.t.e.t.t.t.i.8.7.3.*.+.{ U d q - $ o X uXuXuXuXuXuXuXuXuX",
"uXuXuXuX  . 2 N T.).'.*X1X>X XG.k.y.e.e.e.e.t.e.t.e.r.i.8.3.3.*.+.{ U d q - $ o   uXuXuXuXuXuXuXuXuX",
"uXuXuXuX  . 2 N T.).$X*X1X>X.XG.k.y.w.e.t.e.e.e.t.t.r.i.8.7.5.*.+.{ U d q - $ o   uXuXuXuXuXuXuXuXuX",
"uXuXuXuX  . 2 N T.).'.*X1X>X.XG.k.y.e.e.e.e.e.t.e.e.r.r.q.7.3.*.@.{ Y d q ; $ o   uXuXuXuXuXuXuXuXuX",
"uXuXuXuX  . 2 N T.).%X*X2X>X.XG.k.t.e.e.e.e.t.t.t.t.r.i.8.0.5.*.&.} Y d 0 - $ o X uXuXuXuXuXuXuXuXuX",
"uXuXuXuX  . 3 N T.).%X*X2X,X.XG.x.e.e.e.t.e.e.t.e.t.t.i.i.0.5.4.&.} Y d e - $ o   uXuXuXuXuXuXuXuXuX",
"uXuXuXuX  . 2 N T.).'.*X2X<X.XG.x.y.e.e.e.e.t.t.t.t.t.t.r.0.5.*.%.} Y d q - O o   uXuXuXuXuXuXuXuXuX",
"uXuXuXuX  . 2 N T.).'.*X1X<X.XG.j.t.e.e.e.e.e.e.t.e.t.r.8.7.3.*.@.{ Y d q - $ o   uXuXuXuXuXuXuXuXuX",
"uXuXuXuX  . 2 N T.).].=X7X>X XF.j.u.w.e.t.e.e.e.t.t.w.i.8.7.3.*.+./ Y d 0 ; $ o   uXuXuXuXuXuXuXuXuX",
"uXuXuXuX  . 2 N T.Q.`.&X;X7XXXD.j.t.w.w.w.w.r.e.w.w.r.r.>.7.2.=.X./ U s 0 ; $ o   uXuXuXuXuXuXuXuXuX",
"uXuXuXuX  . 2 N H !._.$X#XoXY.H.g.u.r.>.w.q.i.i.r.r.w.8.2.2.O.o.} E P f 0 - $ o uXuXuXuXuXuXuXuXuXuX",
"uXuXuXuXuX. 2 M D R.E.(.{.K.J.C.s.9.8.8.1.1.1.q.>.8.7.3.2.O..._ ~ Y h i 9 - O o uXuXuXuXuXuXuXuXuXuX",
"uXuXuXuXuXuX1 b V D ! M.N.B.V.;.a.5.0.<.0.5.0.0.0.0.3.4.O..._ T I g f q ; & O uXuXuXuXuXuXuXuXuXuXuX",
"uXuXuXuXuXuXuX4 b M C A ! Q b.;.=.4.6.:.6.6.6.6.6.5.4.O..._ ~ l d i q ; & uXuXuXuXuXuXuXuXuXuXuXuXuX",
"uXuXuXuXuXuXuXuX5 b y x c Q Q ` #.&.*.*.=.*.*.*.-.=.@...) ~ I d w : - & uXuXuXuXuXuXuXuXuXuXuXuXuXuX",
"uXuXuXuXuXuXuXuXuX1 , y a j R W {  .X.+.X.X.X.+.+.X.| ) ~ U h r ; * $ uXuXuXuXuXuXuXuXuXuXuXuXuXuXuX",
"uXuXuXuXuXuXuXuXuX# > , t p j I E E ( ( ^ ^ ( / ( ^ ~ E U l f 0 * O O uXuXuXuXuXuXuXuXuXuXuXuXuXuXuX",
"uXuXuXuXuXuXuXuXuXuXuX= : e f k P U U U U U U U U U I P l d r ; O X uXuXuXuXuXuXuXuXuXuXuXuXuXuXuXuX",
"uXuXuXuXuXuXuXuXuXuXuXuX& ; q r s g g g g g g g g g d s f r 0 & o uXuXuXuXuXuXuXuXuXuXuXuXuXuXuXuXuX",
"uXuXuXuXuXuXuXuXuXuXuXuXuX& ; 9 q q q w q w w r r q q q 0 9 * $ uXuXuXuXuXuXuXuXuXuXuXuXuXuXuXuXuXuX",
"uXuXuXuXuXuXuXuXuXuXuXuXuXO $ & & & * & * * - & & & & & % % $ uXuXuXuXuXuXuXuXuXuXuXuXuXuXuXuXuXuXuX",
"uXuXuXuXuXuXuXuXuXuXuXuXuXuXX X o o o o o o o o o o o o o o uXuXuXuXuXuXuXuXuXuXuXuXuXuXuXuXuXuXuXuX",
"uXuXuXuXuXuXuXuXuXuXuXuXuXuX                                uXuXuXuXuXuXuXuXuXuXuXuXuXuXuXuXuXuXuXuX",
"uXuXuXuXuXuXuXuXuXuXuXuXuXuX                                uXuXuXuXuXuXuXuXuXuXuXuXuXuXuXuXuXuXuXuX"
};
