/* XPM */
static char *result[] = {
/* columns rows colors chars-per-pixel */
"50 50 194 2 ",
"   c #030301",
".  c #0C0C0B",
"X  c #110C01",
"o  c #171002",
"O  c #191102",
"+  c #1D180E",
"@  c #121214",
"#  c #1D1D1E",
"$  c #251902",
"%  c #2C1E03",
"&  c #221804",
"*  c #211E19",
"=  c #2C220B",
"-  c #2F2203",
";  c #342403",
":  c #3A2903",
">  c #3D2E0C",
",  c #362E18",
"<  c #282419",
"1  c #1E2026",
"2  c #222224",
"3  c #2B2B2D",
"4  c #27272A",
"5  c #2D2D31",
"6  c #242830",
"7  c #2E3039",
"8  c #353539",
"9  c #3B3B3B",
"0  c #343436",
"q  c #3C382D",
"w  c #432E04",
"e  c #443005",
"r  c #493505",
"t  c #523A05",
"y  c #583F06",
"u  c #533D0A",
"i  c #4A3C16",
"p  c #413A24",
"a  c #5E4307",
"s  c #5A4207",
"d  c #634A07",
"f  c #6B4E08",
"g  c #634607",
"h  c #6D510C",
"j  c #775609",
"k  c #755808",
"l  c #7C5A09",
"z  c #785C07",
"x  c #614C14",
"c  c #715817",
"v  c #5D5029",
"b  c #52492B",
"n  c #6B5E31",
"m  c #766225",
"M  c #3E3F42",
"N  c #373A42",
"B  c #3F4043",
"V  c #3F4149",
"C  c #454548",
"Z  c #474747",
"A  c #56544E",
"S  c #4A4B52",
"D  c #555554",
"F  c #5A5B5A",
"G  c #726A4D",
"H  c #5B5C62",
"J  c #646463",
"K  c #65666C",
"L  c #6D6D65",
"P  c #6C6C72",
"I  c #767674",
"U  c #7C7A71",
"Y  c #77776B",
"T  c #815D09",
"R  c #84620B",
"E  c #8D6B09",
"W  c #906C0D",
"Q  c #98700B",
"!  c #97730A",
"~  c #826617",
"^  c #96771B",
"/  c #A57B0C",
"(  c #AA7D0C",
")  c #A2770C",
"_  c #A17A11",
"`  c #836F2C",
"'  c #967C27",
"]  c #83784A",
"[  c #AC870B",
"{  c #B88C0D",
"}  c #B58B0C",
"|  c #B99318",
" . c #A78112",
".. c #93823F",
"X. c #AC9535",
"o. c #AA8A20",
"O. c #BDA02D",
"+. c #CE9B0E",
"@. c #C5990C",
"#. c #D19D0E",
"$. c #C29811",
"%. c #CBA00E",
"&. c #DDAB0F",
"*. c #D6B10C",
"=. c #CFA213",
"-. c #D7AB13",
";. c #DCB918",
":. c #E6B20F",
">. c #EAB50F",
",. c #E7BC0C",
"<. c #E6B710",
"1. c #C9A821",
"2. c #D8BE2C",
"3. c #D0BA3E",
"4. c #DEC10E",
"5. c #EFC20C",
"6. c #EDCC0A",
"7. c #E4C70C",
"8. c #F1C40C",
"9. c #F0CF0A",
"0. c #EED90E",
"q. c #EBD40E",
"w. c #F1D009",
"e. c #F2D107",
"r. c #E5CA18",
"t. c #ECD919",
"y. c #F1E41E",
"u. c #E3D238",
"i. c #E7D524",
"p. c #F0E320",
"a. c #ECE038",
"s. c #F5ED3F",
"d. c #EEE229",
"f. c #998942",
"g. c #B5A95F",
"h. c #8A8873",
"j. c #80807F",
"k. c #8A8A79",
"l. c #928E73",
"z. c #9E9E7F",
"x. c #A39B6C",
"c. c #C5B44D",
"v. c #DACE5E",
"b. c #E4D84F",
"n. c #F6EE42",
"m. c #EFE757",
"M. c #DFDB7B",
"N. c #D3CA75",
"B. c #E2DA6E",
"V. c #ECE769",
"C. c #FBF768",
"Z. c #FCF869",
"A. c #F9F467",
"S. c #E8E479",
"D. c #7C7D82",
"F. c #888984",
"G. c #9C9B88",
"H. c #8D8D93",
"J. c #999A9F",
"K. c #969795",
"L. c #A09F8C",
"P. c #BCBA8A",
"I. c #B1B187",
"U. c #A8A895",
"Y. c #B0AD92",
"T. c #B5B498",
"R. c #A3A486",
"E. c #9B9BA1",
"W. c #ABACA8",
"Q. c #BEBEBA",
"!. c #B6B7B3",
"~. c #C2BD8E",
"^. c #C6C58B",
"/. c #D9D688",
"(. c #C6C59B",
"). c #D2D192",
"_. c #FCFB8C",
"`. c #F6F488",
"'. c #E6E598",
"]. c #ECEC8A",
"[. c #C2C3AC",
"{. c #D5D5A5",
"}. c #C0C1BD",
"|. c #CECFB7",
" X c #D6D7BE",
".X c #D7D8BF",
"XX c #E7E7A7",
"oX c #F5F5A4",
"OX c #E4E5B3",
"+X c #E9EAB6",
"@X c #EBEBB9",
"#X c #D8D9C1",
"$X c #D6D7C0",
"%X c None",
/* pixels */
"%X%X%X%X%X%X%X%X%X%X%X%X%X%X%X%X%X%X%X%X            %X%X%X%X%X%X%X%X%X%X%X%X%X%X%X%X%X%X%X%X%X%X%X%X",
"%X%X%X%X%X%X%X%X%X%X%X%X%X%X%X%X%X%X%X%X            %X%X%X%X%X%X%X%X%X%X%X%X%X%X%X%X%X%X%X%X%X%X%X%X",
"%X%X%X%X%X%X%X%X%X%X%X%X%X%X%X%X%X%X%X%X@ @ @ @ @ @ %X%X%X%X%X%X%X%X%X%X%X%X%X%X%X%X%X%X%X%X%X%X%X%X",
"%X%X%X%X%X%X%X%X%X%X%X%X%X%X%X%X%X%X%X2 4 6 5 5 5 6 %X%X%X%X%X%X%X%X%X%X%X%X%X%X%X%X%X%X%X%X%X%X%X%X",
"%X%X%X%X%X%X%X%X%X%X%X%X%X%X%X%X%X%X%X0 N C S S S M 7 %X%X%X%X%X%X%X%X%X%X%X%X%X%X%X%X%X%X%X%X%X%X%X",
"%X%X%X%X%X%X%X%X%X%X%X%X%X%X%X%X%X%X0 C D H K P K H M 2 %X%X%X%X%X%X%X%X%X%X%X%X%X%X%X%X%X%X%X%X%X%X",
"%X%X%X%X%X%X%X%X%X%X%X%X%X%X%X%X%X3 Z A J I U F.D.P A 3 # %X%X%X%X%X%X%X%X%X%X%X%X%X%X%X%X%X%X%X%X%X",
"%X%X%X%X%X%X%X%X%X%X%X%X%X%X%X%X2 9 A J I F.K.U.G.U A q < + %X%X%X%X%X%X%X%X%X%X%X%X%X%X%X%X%X%X%X%X",
"%X%X%X%X%X%X%X%X%X%X%X%X%X%X%X# 6 b F Y k.R.T.T.Y.l.G b , + & %X%X%X%X%X%X%X%X%X%X%X%X%X%X%X%X%X%X%X",
"%X%X%X%X%X%X%X%X%X%X%X%X%X%X2 5 9 A L h.G.Y.[.).~.x.G v i > = & %X%X%X%X%X%X%X%X%X%X%X%X%X%X%X%X%X%X",
"%X%X%X%X%X%X%X%X%X%X%X%X%X4 9 C D L h.z.I.^.)./.N.g.f.m x u e : $ %X%X%X%X%X%X%X%X%X%X%X%X%X%X%X%X%X",
"%X%X%X%X%X%X%X%X%X%X%X%X# 0 S H U F.R.P.^./.M.B.v.c.X.^ ~ h u e ; % %X%X%X%X%X%X%X%X%X%X%X%X%X%X%X%X",
"%X%X%X%X%X%X%X%X%X%X%X. # N H D.K.U.(.)./.S.V.b.b.2.1.| _ R f u : % X %X%X%X%X%X%X%X%X%X%X%X%X%X%X%X",
"%X%X%X%X%X%X%X%X%X%X  . # M K H.W.[.{.'.].S.m.a.i.r.;.=.{ Q j y w % O   %X%X%X%X%X%X%X%X%X%X%X%X%X%X",
"%X%X%X%X%X%X%X%X%X%X  . # M P K.!.|.OXXX`.A.n.d.q.r.>.&.$.) l y w % O   %X%X%X%X%X%X%X%X%X%X%X%X%X%X",
"%X%X%X%X%X%X%X%X%X%X  . # M P J.Q.$XOXoX`.A.n.p.q.9.,.:.+.) T g w ; O   %X%X%X%X%X%X%X%X%X%X%X%X%X%X",
"%X%X%X%X%X%X%X%X%X%X  . # M P E.Q.$XOXoX_.C.s.y.0.e.8.>.+.( T g w - o X   %X%X%X%X%X%X%X%X%X%X%X%X%X",
"%X%X%X%X%X%X%X%X%X%X  . # C P E.}.#X@XoX_.Z.s.y.0.e.8.>.#.( T a w % o     %X%X%X%X%X%X%X%X%X%X%X%X%X",
"%X%X%X%X%X%X%X%X%X%X  . # C P E.}.#X@XoX_.Z.s.y.0.e.6.>.#.( T g e - O     %X%X%X%X%X%X%X%X%X%X%X%X%X",
"%X%X%X%X%X%X%X%X%X%X  . # M P E.}.#X@XoX_.Z.s.y.0.e.8.>.#.( T a w % O X   %X%X%X%X%X%X%X%X%X%X%X%X%X",
"%X%X%X%X%X%X%X%X%X%X  @ # C P J.}..X+XoX_.C.n.y.0.e.8.:.#.( T a e % O     %X%X%X%X%X%X%X%X%X%X%X%X%X",
"%X%X%X%X%X%X%X%X%X%X  . # M P J.}..X+XoX_.C.s.y.0.e.5.:.+.( T a w % O   %X%X%X%X%X%X%X%X%X%X%X%X%X%X",
"%X%X%X%X%X%X%X%X%X%X  . # M P E.Q. X+XoX_.C.s.y.q.6.5.:.+.( l a w - o X %X%X%X%X%X%X%X%X%X%X%X%X%X%X",
"%X%X%X%X%X%X%X%X%X%X  . # M P J.Q. X+XoX_.C.s.y.0.e.5.:.+.( T a w % O   %X%X%X%X%X%X%X%X%X%X%X%X%X%X",
"%X%X%X%X%X%X%X%X%X%X  . # M P E.}. X+XoX_.Z.n.p.0.6.5.:.+.( T a e % O   %X%X%X%X%X%X%X%X%X%X%X%X%X%X",
"%X%X%X%X%X%X%X%X%X%X  @ # M P J.[. X+XoX_.Z.n.p.0.e.5.:.+.( T a e % O   %X%X%X%X%X%X%X%X%X%X%X%X%X%X",
"%X%X%X%X%X%X%X%X%X%X  . # M P E.Q..X+XoX_.Z.n.p.0.w.5.:.+.( T a e % O   %X%X%X%X%X%X%X%X%X%X%X%X%X%X",
"%X%X%X%X%X%X%X%X%X%X  . # V P J.Q. X+XoX_.Z.n.p.0.6.5.:.+.( l a e % O X %X%X%X%X%X%X%X%X%X%X%X%X%X%X",
"%X%X%X%X%X%X%X%X%X%X  . # M P E.Q. X+XoX_.Z.n.p.0.6.5.:.+.( T a e % O   %X%X%X%X%X%X%X%X%X%X%X%X%X%X",
"%X%X%X%X%X%X%X%X%X%X  @ # M P E.Q.#X+XoX_.Z.n.d.0.w.8.>.+.( T a e % O     %X%X%X%X%X%X%X%X%X%X%X%X%X",
"%X%X%X%X%X%X%X%X%X%X  . # M P E.}.#X@XoX_.Z.n.p.0.w.8.>.#.( T a e % O     %X%X%X%X%X%X%X%X%X%X%X%X%X",
"%X%X%X%X%X%X%X%X%X%X  . # V I E.}.#X@XoX_.Z.n.p.0.w.8.>.#.( T g e % O     %X%X%X%X%X%X%X%X%X%X%X%X%X",
"%X%X%X%X%X%X%X%X%X%X  . 1 M P E.}.#X@XoX_.Z.n.p.0.w.8.>.#.( T y w % O     %X%X%X%X%X%X%X%X%X%X%X%X%X",
"%X%X%X%X%X%X%X%X%X%X  . # M P E.Q. X+XoX`.Z.n.p.q.e.8.>.#.( T g e % o X   %X%X%X%X%X%X%X%X%X%X%X%X%X",
"%X%X%X%X%X%X%X%X%X%X  . # V P E.!. X+XoX`.A.n.p.0.6.5.:.+./ l a w - o   %X%X%X%X%X%X%X%X%X%X%X%X%X%X",
"%X%X%X%X%X%X%X%X%X%X  @ # B K J.!.|.OX'.`.A.n.i.q.6.<.&.@.) l s w - O   %X%X%X%X%X%X%X%X%X%X%X%X%X%X",
"%X%X%X%X%X%X%X%X%X%X  . # M K H.W.!.).'.S.m.u.t.7.7.*.%.{ ! k s w % O   %X%X%X%X%X%X%X%X%X%X%X%X%X%X",
"%X%X%X%X%X%X%X%X%X%X%X. # 8 H D.K.U.~.N.B.b.u.i.4.*.%.[ / R f t : % O %X%X%X%X%X%X%X%X%X%X%X%X%X%X%X",
"%X%X%X%X%X%X%X%X%X%X%X%X# 7 S K I h.x.g.c.c.2.;.*.@.[ ! z f s e ; $ %X%X%X%X%X%X%X%X%X%X%X%X%X%X%X%X",
"%X%X%X%X%X%X%X%X%X%X%X%X%X6 N S D G ] f.X.1.1.-.@.[ E k d s : ; $ %X%X%X%X%X%X%X%X%X%X%X%X%X%X%X%X%X",
"%X%X%X%X%X%X%X%X%X%X%X%X%X%X6 7 9 b n ` ' o.| $.} ! z s r : - $ %X%X%X%X%X%X%X%X%X%X%X%X%X%X%X%X%X%X",
"%X%X%X%X%X%X%X%X%X%X%X%X%X%X%X1 3 p v c ~ ^  .[ [ E d r ; % & %X%X%X%X%X%X%X%X%X%X%X%X%X%X%X%X%X%X%X",
"%X%X%X%X%X%X%X%X%X%X%X%X%X%X%X%X* , i x h R E Q E k s : $ O %X%X%X%X%X%X%X%X%X%X%X%X%X%X%X%X%X%X%X%X",
"%X%X%X%X%X%X%X%X%X%X%X%X%X%X%X%X%X= w t a h j l z a r - O %X%X%X%X%X%X%X%X%X%X%X%X%X%X%X%X%X%X%X%X%X",
"%X%X%X%X%X%X%X%X%X%X%X%X%X%X%X%X%X%X; w r t a a a t ; O %X%X%X%X%X%X%X%X%X%X%X%X%X%X%X%X%X%X%X%X%X%X",
"%X%X%X%X%X%X%X%X%X%X%X%X%X%X%X%X%X%X%X- ; : e e e : - %X%X%X%X%X%X%X%X%X%X%X%X%X%X%X%X%X%X%X%X%X%X%X",
"%X%X%X%X%X%X%X%X%X%X%X%X%X%X%X%X%X%X%XO $ $ % % % $ %X%X%X%X%X%X%X%X%X%X%X%X%X%X%X%X%X%X%X%X%X%X%X%X",
"%X%X%X%X%X%X%X%X%X%X%X%X%X%X%X%X%X%X%X%XX X X X X X %X%X%X%X%X%X%X%X%X%X%X%X%X%X%X%X%X%X%X%X%X%X%X%X",
"%X%X%X%X%X%X%X%X%X%X%X%X%X%X%X%X%X%X%X%X            %X%X%X%X%X%X%X%X%X%X%X%X%X%X%X%X%X%X%X%X%X%X%X%X",
"%X%X%X%X%X%X%X%X%X%X%X%X%X%X%X%X%X%X%X%X            %X%X%X%X%X%X%X%X%X%X%X%X%X%X%X%X%X%X%X%X%X%X%X%X"
};
