/* XPM */
static char *result[] = {
/* columns rows colors chars-per-pixel */
"50 50 95 2 ",
"   c black",
".  c #010100",
"X  c #090601",
"o  c #0D0901",
"O  c #0E0A01",
"+  c #110D01",
"@  c #120D01",
"#  c #171102",
"$  c #181102",
"%  c #181202",
"&  c #191202",
"*  c #241A03",
"=  c #251B03",
"-  c #261B03",
";  c #261C03",
":  c #271C03",
">  c #281D03",
",  c #291E03",
"<  c #2A1F03",
"1  c #2C2003",
"2  c #2D2103",
"3  c #2E2103",
"4  c #2E2203",
"5  c #312404",
"6  c #352704",
"7  c #3B2B04",
"8  c #3C2C05",
"9  c #3E2D04",
"0  c #3E2D05",
"q  c #3F2E05",
"w  c #413005",
"e  c #423005",
"r  c #433105",
"t  c #443105",
"y  c #443205",
"u  c #463305",
"i  c #483405",
"p  c #4D3805",
"a  c #4D3906",
"s  c #4E3906",
"d  c #513B06",
"f  c #533C06",
"g  c #553D06",
"h  c #553E06",
"j  c #563E06",
"k  c #584007",
"l  c #5C4307",
"z  c #604607",
"x  c #614607",
"c  c #624707",
"v  c #624807",
"b  c #644907",
"n  c #684C08",
"m  c #6A4D08",
"M  c #705108",
"N  c #715208",
"B  c #765608",
"V  c #775609",
"C  c #785709",
"Z  c #795709",
"A  c #795809",
"S  c #7A5809",
"D  c #7B5909",
"F  c #7C5A09",
"G  c #825E09",
"H  c #835F09",
"J  c #845F09",
"K  c #856009",
"L  c #866109",
"P  c #89630A",
"I  c #8B650A",
"U  c #8C650A",
"Y  c #926A0A",
"T  c #936B0B",
"R  c #946B0B",
"E  c #956C0B",
"W  c #966D0B",
"Q  c #9C710B",
"!  c #9D720B",
"~  c #A7790C",
"^  c #A87A0C",
"/  c #AA7B0C",
"(  c #AB7C0C",
")  c #AC7C0C",
"_  c #AD7D0C",
"`  c #AE7E0C",
"'  c #AF7F0C",
"]  c #B5830D",
"[  c #B6840D",
"{  c #B7840D",
"}  c #B6850D",
"|  c #B7850D",
" . c #B9860D",
".. c #BB870D",
"X. c None",
/* pixels */
"X.X.X.X.X.X.X.X.X.X.X.X.X.X.X.X.X.X.X.X.X.X.X.            X.X.X.X.X.X.X.X.X.X.X.X.X.X.X.X.X.X.X.X.X.",
"X.X.X.X.X.X.X.X.X.X.X.X.X.X.X.X.X.X.X.X.X.X.X.. . . . . . X.X.X.X.X.X.X.X.X.X.X.X.X.X.X.X.X.X.X.X.X.",
"X.X.X.X.X.X.X.X.X.X.X.X.X.X.X.X.X.X.X.X.X.X.X.+ @ @ @ @ + X.X.X.X.X.X.X.X.X.X.X.X.X.X.X.X.X.X.X.X.X.",
"X.X.X.X.X.X.X.X.X.X.X.X.X.X.X.X.X.X.X.X.X.X.X.: < < < > ; * X.X.X.X.X.X.X.X.X.X.X.X.X.X.X.X.X.X.X.X.",
"X.X.X.X.X.X.X.X.X.X.X.X.X.X.X.X.X.X.X.X.X.X.5 0 u i u w 8 6 X.X.X.X.X.X.X.X.X.X.X.X.X.X.X.X.X.X.X.X.",
"X.X.X.X.X.X.X.X.X.X.X.X.X.X.X.X.X.X.X.X.X.; 9 f z b z k s t 6 X.X.X.X.X.X.X.X.X.X.X.X.X.X.X.X.X.X.X.",
"X.X.X.X.X.X.X.X.X.X.X.X.X.X.X.X.X.X.X.X.# , u v B F V m l a 7 * X.X.X.X.X.X.X.X.X.X.X.X.X.X.X.X.X.X.",
"X.X.X.X.X.X.X.X.X.X.X.X.X.X.X.X.X.X.X.O $ 1 p M I T U D n j q = o X.X.X.X.X.X.X.X.X.X.X.X.X.X.X.X.X.",
"X.X.X.X.X.X.X.X.X.X.X.X.X.X.X.X.X.X.X.O % 2 d D Q ~ ! P N l e - o   X.X.X.X.X.X.X.X.X.X.X.X.X.X.X.X.",
"X.X.X.X.X.X.X.X.X.X.X.X.X.X.X.X.X.X.X O & 3 g G ^ ] / Y C z t ; o   X.X.X.X.X.X.X.X.X.X.X.X.X.X.X.X.",
"X.X.X.X.X.X.X.X.X.X.X.X.X.X.X.X.X.X.X O & 4 j K _ ..' W D c y ; o   X.X.X.X.X.X.X.X.X.X.X.X.X.X.X.X.",
"X.X.X.X.X.X.X.X.X.X.X.X.X.X.X.X.X.X.X O & 4 j L ` ..' W D c y ; o   X.X.X.X.X.X.X.X.X.X.X.X.X.X.X.X.",
"X.X.X.X.X.X.X.X.X.X.X.X.X.X.X.X.X.X.X O & 3 h K )  ._ E S x t : o   X.X.X.X.X.X.X.X.X.X.X.X.X.X.X.X.",
"X.X.X.X.X.X.X.X.X.X.X.X.X.X.X.X.X.X.X O & 3 h J / | ) R A x t ; o   X.X.X.X.X.X.X.X.X.X.X.X.X.X.X.X.",
"X.X.X.X.X.X.X.X.X.X.X.X.X.X.X.X.X.X.X O & 3 h H / { ( T Z x t ; o   X.X.X.X.X.X.X.X.X.X.X.X.X.X.X.X.",
"X.X.X.X.X.X.X.X.X.X.X.X.X.X.X.X.X.X.X O & 3 h H / { ( T C z t ; o   X.X.X.X.X.X.X.X.X.X.X.X.X.X.X.X.",
"X.X.X.X.X.X.X.X.X.X.X.X.X.X.X.X.X.X.X O & 3 h H / [ ( T C z t ; o   X.X.X.X.X.X.X.X.X.X.X.X.X.X.X.X.",
"X.X.X.X.X.X.X.X.X.X.X.X.X.X.X.X.X.X.X O & 3 h H / } ( T C z t ; o   X.X.X.X.X.X.X.X.X.X.X.X.X.X.X.X.",
"X.X.X.X.X.X.X.X.X.X.X.X.X.X.X.X.X.X.X O & 3 h H / } ( T C z r ; o   X.X.X.X.X.X.X.X.X.X.X.X.X.X.X.X.",
"X.X.X.X.X.X.X.X.X.X.X.X.X.X.X.X.X.X.X O & 3 h H / } ( T C z r ; o   X.X.X.X.X.X.X.X.X.X.X.X.X.X.X.X.",
"X.X.X.X.X.X.X.X.X.X.X.X.X.X.X.X.X.X.X O & 3 h H / } ( T C z r ; o   X.X.X.X.X.X.X.X.X.X.X.X.X.X.X.X.",
"X.X.X.X.X.X.X.X.X.X.X.X.X.X.X.X.X.X.X O & 3 h H / } ( T C z r ; o   X.X.X.X.X.X.X.X.X.X.X.X.X.X.X.X.",
"X.X.X.X.X.X.X.X.X.X.X.X.X.X.X.X.X.X.X O & 3 h H / } ( T C z r ; o   X.X.X.X.X.X.X.X.X.X.X.X.X.X.X.X.",
"X.X.X.X.X.X.X.X.X.X.X.X.X.X.X.X.X.X.X O & 3 h H / } ( T C z r ; o   X.X.X.X.X.X.X.X.X.X.X.X.X.X.X.X.",
"X.X.X.X.X.X.X.X.X.X.X.X.X.X.X.X.X.X.X O & 3 h H / } ( T C z r ; o   X.X.X.X.X.X.X.X.X.X.X.X.X.X.X.X.",
"X.X.X.X.X.X.X.X.X.X.X.X.X.X.X.X.X.X.X O & 3 h H / } ( T C z r ; o   X.X.X.X.X.X.X.X.X.X.X.X.X.X.X.X.",
"X.X.X.X.X.X.X.X.X.X.X.X.X.X.X.X.X.X.X O & 3 h H / } ( T C z r ; o   X.X.X.X.X.X.X.X.X.X.X.X.X.X.X.X.",
"X.X.X.X.X.X.X.X.X.X.X.X.X.X.X.X.X.X.X O & 3 h H / } ( T C z r ; o   X.X.X.X.X.X.X.X.X.X.X.X.X.X.X.X.",
"X.X.X.X.X.X.X.X.X.X.X.X.X.X.X.X.X.X.X O & 3 h H / } ( T C z r ; o   X.X.X.X.X.X.X.X.X.X.X.X.X.X.X.X.",
"X.X.X.X.X.X.X.X.X.X.X.X.X.X.X.X.X.X.X O & 3 h H / } ( T C z r ; o   X.X.X.X.X.X.X.X.X.X.X.X.X.X.X.X.",
"X.X.X.X.X.X.X.X.X.X.X.X.X.X.X.X.X.X.X O & 3 h H / } ( T C z r ; o   X.X.X.X.X.X.X.X.X.X.X.X.X.X.X.X.",
"X.X.X.X.X.X.X.X.X.X.X.X.X.X.X.X.X.X.X O & 3 h H / } ( T C z r ; o   X.X.X.X.X.X.X.X.X.X.X.X.X.X.X.X.",
"X.X.X.X.X.X.X.X.X.X.X.X.X.X.X.X.X.X.X O & 3 h H / } ( T C z t ; o   X.X.X.X.X.X.X.X.X.X.X.X.X.X.X.X.",
"X.X.X.X.X.X.X.X.X.X.X.X.X.X.X.X.X.X.X O & 3 h H / [ ( T C z t ; o   X.X.X.X.X.X.X.X.X.X.X.X.X.X.X.X.",
"X.X.X.X.X.X.X.X.X.X.X.X.X.X.X.X.X.X.X O & 3 h H / { ( T C z t ; o   X.X.X.X.X.X.X.X.X.X.X.X.X.X.X.X.",
"X.X.X.X.X.X.X.X.X.X.X.X.X.X.X.X.X.X.X O & 3 h H / { ( T Z x t ; o   X.X.X.X.X.X.X.X.X.X.X.X.X.X.X.X.",
"X.X.X.X.X.X.X.X.X.X.X.X.X.X.X.X.X.X.X O & 3 h J / | ) R A x t ; o   X.X.X.X.X.X.X.X.X.X.X.X.X.X.X.X.",
"X.X.X.X.X.X.X.X.X.X.X.X.X.X.X.X.X.X.X O & 3 h K )  ._ E S x t : o   X.X.X.X.X.X.X.X.X.X.X.X.X.X.X.X.",
"X.X.X.X.X.X.X.X.X.X.X.X.X.X.X.X.X.X.X O & 4 j L ` ..' W D c y ; o   X.X.X.X.X.X.X.X.X.X.X.X.X.X.X.X.",
"X.X.X.X.X.X.X.X.X.X.X.X.X.X.X.X.X.X.X O & 4 j K _ ..' W D c y ; o   X.X.X.X.X.X.X.X.X.X.X.X.X.X.X.X.",
"X.X.X.X.X.X.X.X.X.X.X.X.X.X.X.X.X.X.X O & 3 g G ^ ] / Y C z t ; o   X.X.X.X.X.X.X.X.X.X.X.X.X.X.X.X.",
"X.X.X.X.X.X.X.X.X.X.X.X.X.X.X.X.X.X.X.O % 2 d D Q ~ ! P N l e - o   X.X.X.X.X.X.X.X.X.X.X.X.X.X.X.X.",
"X.X.X.X.X.X.X.X.X.X.X.X.X.X.X.X.X.X.X.O $ 1 p M I T U D n j q = o X.X.X.X.X.X.X.X.X.X.X.X.X.X.X.X.X.",
"X.X.X.X.X.X.X.X.X.X.X.X.X.X.X.X.X.X.X.X.# , u v B F V m l a 7 * X.X.X.X.X.X.X.X.X.X.X.X.X.X.X.X.X.X.",
"X.X.X.X.X.X.X.X.X.X.X.X.X.X.X.X.X.X.X.X.X.; 9 f z b z k s t 6 X.X.X.X.X.X.X.X.X.X.X.X.X.X.X.X.X.X.X.",
"X.X.X.X.X.X.X.X.X.X.X.X.X.X.X.X.X.X.X.X.X.X.5 0 u i u w 8 6 X.X.X.X.X.X.X.X.X.X.X.X.X.X.X.X.X.X.X.X.",
"X.X.X.X.X.X.X.X.X.X.X.X.X.X.X.X.X.X.X.X.X.X.X.: < < < > ; * X.X.X.X.X.X.X.X.X.X.X.X.X.X.X.X.X.X.X.X.",
"X.X.X.X.X.X.X.X.X.X.X.X.X.X.X.X.X.X.X.X.X.X.X.+ @ @ @ @ + X.X.X.X.X.X.X.X.X.X.X.X.X.X.X.X.X.X.X.X.X.",
"X.X.X.X.X.X.X.X.X.X.X.X.X.X.X.X.X.X.X.X.X.X.X.. . . . . . X.X.X.X.X.X.X.X.X.X.X.X.X.X.X.X.X.X.X.X.X.",
"X.X.X.X.X.X.X.X.X.X.X.X.X.X.X.X.X.X.X.X.X.X.X.            X.X.X.X.X.X.X.X.X.X.X.X.X.X.X.X.X.X.X.X.X."
};
